<svg width="20" height="20" viewBox="0 0 20 20" fill="none" xmlns="http://www.w3.org/2000/svg">
<g clip-path="url(#clip0_74_5859)">
<path d="M9.99973 4.8647C7.16406 4.8647 4.86484 7.16435 4.86484 9.99997C4.86484 12.8362 7.16406 15.1349 9.99973 15.1349C12.8359 15.1349 15.1355 12.8362 15.1355 9.99997C15.1355 7.16435 12.8359 4.8647 9.99973 4.8647ZM9.99973 13.3334C8.1591 13.3334 6.66629 11.8411 6.66629 9.99997C6.66629 8.15892 8.15906 6.66657 9.99973 6.66657C11.8408 6.66657 13.3336 8.15892 13.3336 9.99997C13.3336 11.841 11.8408 13.3334 9.99973 13.3334ZM16.538 4.66208C16.538 5.32427 16.0007 5.86165 15.338 5.86165C14.6755 5.86165 14.138 5.32427 14.138 4.66208C14.138 3.99962 14.6754 3.46208 15.338 3.46208C16.0007 3.46208 16.538 3.99962 16.538 4.66208ZM19.475 3.44978C19.2194 2.79189 18.8775 2.23446 18.3219 1.67845C17.201 0.556767 15.6675 0.130361 14.1233 0.0604395C13.0565 0.0111426 12.7159 0.000244141 9.99973 0.000244141C7.28445 0.000244141 6.94391 0.0111426 5.87711 0.0604395C4.32918 0.130518 2.79742 0.55958 1.67863 1.67841C0.555469 2.80157 0.131055 4.33036 0.0600391 5.87735C0.0114453 6.94415 0 7.28431 0 9.99997C0 12.7157 0.0114453 13.0563 0.0600391 14.1236C0.131367 15.6759 0.555039 17.199 1.67855 18.3216C2.80191 19.4441 4.33023 19.8692 5.87711 19.94C6.94391 19.9888 7.28445 19.9998 9.99973 19.9998C12.716 19.9998 13.0565 19.9888 14.1233 19.94C15.6738 19.869 17.2007 19.4436 18.3218 18.3216C19.4422 17.2004 19.8697 15.6671 19.9398 14.1235C19.9886 13.0563 20 12.7156 20 9.99993C20 7.28423 19.9886 6.94411 19.9398 5.87731C19.8915 4.81267 19.7224 4.08603 19.475 3.44978ZM18.1398 14.0409C18.0904 15.127 17.838 16.2568 17.0478 17.048C16.2471 17.8497 15.1341 18.0903 14.0412 18.1401C12.9864 18.1879 12.6705 18.1984 9.99973 18.1984C7.32988 18.1984 7.01402 18.1879 5.95918 18.1401C4.86348 18.0902 3.75227 17.8456 2.95223 17.0481C2.15449 16.253 1.90898 15.1263 1.86012 14.0408C1.81234 12.9866 1.80187 12.6704 1.80187 9.99993C1.80187 7.33009 1.81238 7.01384 1.86012 5.95899C1.90883 4.87786 2.16605 3.73981 2.95207 2.95247C3.74902 2.15419 4.8718 1.90993 5.95926 1.86032C7.01402 1.81216 7.32988 1.80208 9.99973 1.80208C12.6702 1.80208 12.9864 1.81216 14.0412 1.86032C15.1363 1.91028 16.2493 2.15372 17.0477 2.95231C17.8464 3.7513 18.0902 4.86985 18.1398 5.95907C18.1881 7.01384 18.1986 7.33009 18.1986 9.99997C18.1986 12.6704 18.1881 12.9867 18.1398 14.0409Z" fill="url(#paint0_linear_74_5859)"/>
</g>
<defs>
<linearGradient id="paint0_linear_74_5859" x1="1.67859" y1="18.3217" x2="18.3218" y2="1.67844" gradientUnits="userSpaceOnUse">
<stop stop-color="#FDD91D"/>
<stop offset="0.05" stop-color="#FDD91D"/>
<stop offset="0.4972" stop-color="#EC1C24"/>
<stop offset="0.95" stop-color="#A43A94"/>
<stop offset="1" stop-color="#A43A94"/>
</linearGradient>
<clipPath id="clip0_74_5859">
<rect width="20" height="20" fill="white"/>
</clipPath>
</defs>
</svg>
