<svg width="56" height="56" viewBox="0 0 56 56" fill="none" xmlns="http://www.w3.org/2000/svg">
<path d="M0 8C0 3.58172 3.58172 0 8 0H48C52.4183 0 56 3.58172 56 8V48C56 52.4183 52.4183 56 48 56H8C3.58172 56 0 52.4183 0 48V8Z" fill="white" fill-opacity="0.12"/>
<path d="M34.6663 25.3333V22.6667C34.6663 18.9848 31.6816 16 27.9997 16C24.3178 16 21.333 18.9848 21.333 22.6667V25.3333M27.9997 31.3333V34M23.733 40H32.2663C34.5066 40 35.6267 40 36.4823 39.564C37.235 39.1805 37.8469 38.5686 38.2304 37.816C38.6663 36.9603 38.6663 35.8402 38.6663 33.6V31.7333C38.6663 29.4931 38.6663 28.373 38.2304 27.5174C37.8469 26.7647 37.235 26.1528 36.4823 25.7693C35.6267 25.3333 34.5066 25.3333 32.2663 25.3333H23.733C21.4928 25.3333 20.3727 25.3333 19.517 25.7693C18.7644 26.1528 18.1525 26.7647 17.769 27.5174C17.333 28.373 17.333 29.4931 17.333 31.7333V33.6C17.333 35.8402 17.333 36.9603 17.769 37.816C18.1525 38.5686 18.7644 39.1805 19.517 39.564C20.3727 40 21.4928 40 23.733 40Z" stroke="white" stroke-width="1.5" stroke-linecap="round" stroke-linejoin="round"/>
</svg>
