<svg width="20" height="20" viewBox="0 0 20 20" fill="none" xmlns="http://www.w3.org/2000/svg">
<path d="M14.3551 0.916748H5.64414C3.04366 0.916748 0.935547 3.02486 0.935547 5.62534V14.3363C0.935547 16.9368 3.04366 19.0449 5.64414 19.0449H14.3551C16.9556 19.0449 19.0637 16.9368 19.0637 14.3363V5.62534C19.0637 3.02486 16.9556 0.916748 14.3551 0.916748Z" fill="#FFFD00"/>
<path d="M16.3465 13.1199C16.2711 13.1105 15.3547 13.0347 14.4105 11.8164C13.4664 10.598 13.8344 10.3808 13.8816 10.2676C13.9289 10.1543 14.5266 9.98201 14.9109 9.83318C15.4969 9.60623 15.4684 9.20037 15.3738 8.97849C15.2793 8.75662 14.8922 8.55779 14.3633 8.78318C13.8609 8.99842 13.6641 8.83045 13.6641 8.83045C13.6641 8.83045 13.7887 6.97107 13.7207 6.60154C13.1332 3.32771 9.99961 3.59959 9.99961 3.59959C9.99961 3.59959 6.86602 3.32615 6.27852 6.60271C6.21211 6.97107 6.33516 8.83201 6.33516 8.83201C6.33516 8.83201 6.13984 8.99998 5.63594 8.78474C5.10703 8.55779 4.71992 8.75662 4.62539 8.98006C4.53086 9.20349 4.50273 9.60779 5.08828 9.83474C5.47266 9.98357 6.0707 10.1558 6.11758 10.2691C6.16445 10.3824 6.5332 10.5996 5.58867 11.8179C4.64414 13.0363 3.72812 13.1121 3.65273 13.1215C3.57734 13.1308 3.19922 13.1402 3.19922 13.3949C3.19922 13.6496 3.32383 14.073 4.85234 14.3394C5.09336 14.3812 5.06953 14.5566 5.06953 14.5566C5.06953 14.5566 5.06953 15.1613 5.39062 15.2179C5.71172 15.2746 6.27852 15.0761 6.70352 15.1234C7.12852 15.1707 7.37383 15.114 8.20508 15.775C9.03633 16.4359 9.99961 16.4 9.99961 16.4C9.99961 16.4 10.9629 16.439 11.7941 15.775C12.6254 15.1109 12.8707 15.1707 13.2957 15.1234C13.7207 15.0761 14.2875 15.2734 14.609 15.2168C14.9305 15.1601 14.9301 14.5554 14.9301 14.5554C14.9301 14.5554 14.9062 14.3801 15.1473 14.3383C16.6758 14.0719 16.8004 13.6488 16.8004 13.3937C16.8004 13.1387 16.4223 13.1293 16.3465 13.1199Z" fill="white"/>
<path d="M9.82539 3.93398C9.9168 3.93398 9.97031 3.93828 9.97031 3.93828L9.99961 3.94062L10.0281 3.93828C10.0281 3.93828 10.082 3.93398 10.1738 3.93398C10.4473 3.93398 11.1629 3.97305 11.8461 4.34414C12.6723 4.79141 13.1902 5.57188 13.3863 6.66289C13.4254 6.88867 13.3746 8.0543 13.325 8.81133L13.3137 8.98164L13.4434 9.09219C13.4824 9.12617 13.6332 9.23633 13.9082 9.23633C14.1118 9.23069 14.3121 9.18405 14.4973 9.09922C14.5965 9.05388 14.7038 9.02916 14.8129 9.02656C14.9789 9.02656 15.0523 9.09727 15.0609 9.11367C15.0891 9.17425 15.0929 9.24335 15.0715 9.30664C15.0383 9.38477 14.9379 9.46016 14.7883 9.51797C14.6867 9.55703 14.5645 9.6 14.4465 9.64141C13.9059 9.82891 13.6715 9.91758 13.5766 10.1172L13.5727 10.1227C13.5148 10.2094 13.3797 10.4117 13.4523 10.7746C13.518 11.1023 13.7434 11.5113 14.1418 12.0246C15.0512 13.1965 15.9543 13.4172 16.3004 13.4566H16.3043L16.3434 13.4605C16.3879 13.4645 16.4215 13.4691 16.4461 13.4738C16.4207 13.5209 16.3843 13.5612 16.3398 13.591C16.1918 13.7051 15.8551 13.8688 15.0898 14.002C14.6992 14.0703 14.582 14.3633 14.5906 14.5652C14.5879 14.6844 14.557 14.8285 14.5238 14.884C14.5113 14.884 14.4957 14.884 14.4766 14.884C14.3353 14.8777 14.1946 14.8617 14.0555 14.8359C13.8512 14.7998 13.6445 14.7795 13.4371 14.775C13.377 14.7748 13.3168 14.778 13.257 14.7844C13.2117 14.7895 13.166 14.7934 13.1223 14.7973C12.6832 14.8363 12.3387 14.9051 11.5812 15.5078C10.9234 16.0312 10.1715 16.0578 10.0277 16.0578H9.96914C9.82539 16.0578 9.07344 16.0312 8.41562 15.5078C7.6582 14.9051 7.31367 14.8352 6.87461 14.7973C6.83086 14.7934 6.78555 14.7895 6.73984 14.7844C6.68003 14.778 6.61992 14.7748 6.55977 14.775C6.3531 14.7805 6.14716 14.8018 5.94375 14.8387C5.80466 14.8644 5.66396 14.8805 5.52266 14.8867C5.50352 14.8867 5.48789 14.8867 5.47539 14.8867C5.44219 14.8313 5.41094 14.6867 5.4082 14.568C5.41914 14.3664 5.3 14.073 4.90937 14.0047C4.14375 13.8715 3.80703 13.7078 3.65937 13.5938C3.61539 13.5638 3.57933 13.5235 3.5543 13.4766C3.5793 13.4719 3.6125 13.4672 3.65703 13.4633L3.69609 13.4594H3.70039C4.04648 13.4203 4.95039 13.2008 5.85898 12.0273C6.25742 11.5137 6.48398 11.1047 6.54844 10.7773C6.62109 10.4145 6.48594 10.2121 6.42813 10.1254L6.42422 10.1199C6.3293 9.9207 6.09609 9.83203 5.5543 9.64258C5.43711 9.60117 5.31406 9.5582 5.2125 9.51914C5.06289 9.46133 4.9625 9.38594 4.9293 9.30781C4.90793 9.24495 4.91157 9.17627 4.93945 9.11602C4.94844 9.09844 5.02188 9.02773 5.18789 9.02773C5.29693 9.03033 5.40431 9.05505 5.50352 9.10039C5.68866 9.18523 5.889 9.23186 6.09258 9.2375C6.36602 9.2375 6.51797 9.12734 6.55742 9.09336L6.68711 8.98281L6.67578 8.8125C6.62617 8.05742 6.57422 6.8918 6.61445 6.66406C6.80977 5.57266 7.32852 4.79258 8.15469 4.34531C8.83789 3.975 9.55195 3.93516 9.82695 3.93516M10.1738 3.59375C10.0629 3.59375 9.99961 3.59961 9.99961 3.59961C9.99961 3.59961 9.93594 3.59375 9.82539 3.59375C9.15898 3.59375 6.78242 3.79375 6.27852 6.60156C6.21211 6.96992 6.33516 8.83086 6.33516 8.83086C6.33516 8.83086 6.26211 8.89336 6.09102 8.89336C5.93348 8.88775 5.7787 8.85042 5.63594 8.78359C5.49446 8.71989 5.34147 8.68573 5.18633 8.6832C4.89375 8.6832 4.69023 8.825 4.62539 8.97734C4.53086 9.19922 4.50273 9.60508 5.08828 9.83203C5.47266 9.98086 6.0707 10.1531 6.11758 10.2664C6.16445 10.3797 6.5332 10.5969 5.58867 11.8152C4.64414 13.0336 3.72812 13.1094 3.65273 13.1187C3.57734 13.1281 3.19922 13.1375 3.19922 13.3922C3.19922 13.6469 3.32383 14.0703 4.85234 14.3367C5.09336 14.3785 5.06953 14.5539 5.06953 14.5539C5.06953 14.5539 5.06953 15.1586 5.39062 15.2152C5.43466 15.2224 5.47922 15.2258 5.52383 15.2254C5.8125 15.2254 6.21602 15.1133 6.56094 15.1133C6.60856 15.1131 6.65616 15.1156 6.70352 15.1207C7.12852 15.168 7.37383 15.1113 8.20508 15.7723C8.95078 16.3656 9.80352 16.3973 9.97031 16.3973H10.0289C10.1957 16.3973 11.048 16.3668 11.7941 15.7723C12.6254 15.1113 12.8707 15.168 13.2957 15.1207C13.3431 15.1156 13.3907 15.1131 13.4383 15.1133C13.7832 15.1133 14.1867 15.2254 14.4754 15.2254C14.52 15.2258 14.5646 15.2224 14.6086 15.2152C14.9297 15.1586 14.9297 14.5539 14.9297 14.5539C14.9297 14.5539 14.9059 14.3785 15.1469 14.3367C16.6754 14.0703 16.8 13.6473 16.8 13.3922C16.8 13.1371 16.4223 13.1277 16.3465 13.1187C16.2707 13.1098 15.3547 13.0336 14.4105 11.8152C13.4664 10.5969 13.8344 10.3797 13.8816 10.2664C13.9289 10.1531 14.5266 9.98086 14.9109 9.83203C15.4969 9.60508 15.4684 9.19922 15.3738 8.97734C15.309 8.825 15.1055 8.6832 14.8129 8.6832C14.6578 8.68573 14.5048 8.71989 14.3633 8.78359C14.2205 8.85042 14.0657 8.88775 13.9082 8.89336C13.7371 8.89336 13.6641 8.83086 13.6641 8.83086C13.6641 8.83086 13.7887 6.97109 13.7207 6.60156C13.2168 3.79297 10.8402 3.59375 10.1738 3.59375Z" fill="black"/>
</svg>
